<svg width="396" height="99" viewBox="0 0 396 99" fill="none" xmlns="http://www.w3.org/2000/svg">
<path d="M14.0595 7.51406C14.0595 8.45745 13.8732 9.33877 13.5008 10.158C13.1532 10.9773 12.669 11.6972 12.0482 12.3179C11.4275 12.9137 10.695 13.3978 9.8508 13.7702C9.03141 14.1178 8.14995 14.2915 7.20642 14.2915C6.26288 14.2915 5.36901 14.1178 4.5248 13.7702C3.70541 13.3978 2.98534 12.9137 2.3646 12.3179C1.76868 11.6972 1.2845 10.9773 0.912052 10.158C0.564434 9.33877 0.390625 8.45745 0.390625 7.51406C0.390625 6.5955 0.564434 5.72659 0.912052 4.90733C1.2845 4.06325 1.76868 3.3433 2.3646 2.74748C2.98534 2.12683 3.70541 1.64272 4.5248 1.29516C5.36901 0.922767 6.26288 0.736572 7.20642 0.736572C8.14995 0.736572 9.03141 0.922767 9.8508 1.29516C10.695 1.64272 11.4275 2.12683 12.0482 2.74748C12.669 3.3433 13.1532 4.06325 13.5008 4.90733C13.8732 5.72659 14.0595 6.5955 14.0595 7.51406ZM12.309 58.2335H2.06664V18.3506H12.309V58.2335Z" fill="#031862"/>
<path d="M30.2609 58.2335H20.0931V18.3506H22.5513L25.9033 22.2234C27.5421 20.7339 29.3919 19.5919 31.4528 18.7975C33.5385 17.9782 35.7111 17.5686 37.9706 17.5686C40.4039 17.5686 42.7007 18.0403 44.8609 18.9837C47.0211 19.9022 48.9082 21.1808 50.5221 22.8193C52.136 24.433 53.4024 26.3321 54.3211 28.5168C55.2646 30.6767 55.7364 32.9855 55.7364 35.4433V58.2335H45.5685V35.4433C45.5685 34.4006 45.3699 33.4199 44.9726 32.5014C44.5753 31.558 44.0291 30.7387 43.3339 30.0436C42.6386 29.3485 41.8316 28.8023 40.9129 28.4051C39.9942 28.0079 39.0135 27.8093 37.9706 27.8093C36.9029 27.8093 35.8973 28.0079 34.9538 28.4051C34.0102 28.8023 33.1909 29.3485 32.4956 30.0436C31.8004 30.7387 31.2541 31.558 30.8569 32.5014C30.4596 33.4199 30.2609 34.4006 30.2609 35.4433V58.2335Z" fill="#031862"/>
<path d="M101.547 58.2335H99.0893L95.1413 52.7594C94.173 53.6283 93.1425 54.4475 92.05 55.2171C90.9823 55.9619 89.8526 56.6198 88.6607 57.1908C87.4689 57.737 86.2398 58.1714 84.9735 58.4942C83.732 58.8169 82.4657 58.9783 81.1745 58.9783C78.3688 58.9783 75.7244 58.4569 73.2414 57.4142C70.7833 56.3467 68.6231 54.882 66.7608 53.02C64.9234 51.1333 63.4709 48.9113 62.4032 46.3543C61.3355 43.7724 60.8017 40.967 60.8017 37.9383C60.8017 34.9343 61.3355 32.1414 62.4032 29.5595C63.4709 26.9776 64.9234 24.7433 66.7608 22.8565C68.6231 20.9697 70.7833 19.4926 73.2414 18.4251C75.7244 17.3576 78.3688 16.8238 81.1745 16.8238C82.0684 16.8238 82.9871 16.8983 83.9307 17.0472C84.899 17.1962 85.8301 17.4444 86.724 17.792C87.6427 18.1147 88.4994 18.5492 89.2939 19.0954C90.0885 19.6415 90.7589 20.3118 91.3051 21.1063V2.4868H101.547V58.2335ZM91.3051 37.9383C91.3051 36.548 91.032 35.2074 90.4857 33.9165C89.9643 32.6007 89.2442 31.4463 88.3255 30.4532C87.4068 29.4354 86.3267 28.6285 85.0852 28.0327C83.8686 27.4121 82.565 27.1017 81.1745 27.1017C79.7841 27.1017 78.4681 27.35 77.2266 27.8465C76.0099 28.343 74.9423 29.063 74.0235 30.0064C73.1297 30.9249 72.422 32.0545 71.9006 33.3951C71.3792 34.7357 71.1185 36.2501 71.1185 37.9383C71.1185 39.403 71.3792 40.7933 71.9006 42.109C72.422 43.4248 73.1297 44.5792 74.0235 45.5723C74.9423 46.5653 76.0099 47.3473 77.2266 47.9183C78.4681 48.4893 79.7841 48.7748 81.1745 48.7748C82.565 48.7748 83.8686 48.4769 85.0852 47.8811C86.3267 47.2604 87.4068 46.4536 88.3255 45.4605C89.2442 44.4427 89.9643 43.2883 90.4857 41.9973C91.032 40.6815 91.3051 39.3285 91.3051 37.9383Z" fill="#031862"/>
<path d="M121.324 7.51406C121.324 8.45745 121.138 9.33877 120.766 10.158C120.418 10.9773 119.934 11.6972 119.313 12.3179C118.692 12.9137 117.96 13.3978 117.116 13.7702C116.296 14.1178 115.415 14.2915 114.471 14.2915C113.528 14.2915 112.634 14.1178 111.79 13.7702C110.97 13.3978 110.25 12.9137 109.63 12.3179C109.034 11.6972 108.549 10.9773 108.177 10.158C107.829 9.33877 107.656 8.45745 107.656 7.51406C107.656 6.5955 107.829 5.72659 108.177 4.90733C108.549 4.06325 109.034 3.3433 109.63 2.74748C110.25 2.12683 110.97 1.64272 111.79 1.29516C112.634 0.922767 113.528 0.736572 114.471 0.736572C115.415 0.736572 116.296 0.922767 117.116 1.29516C117.96 1.64272 118.692 2.12683 119.313 2.74748C119.934 3.3433 120.418 4.06325 120.766 4.90733C121.138 5.72659 121.324 6.5955 121.324 7.51406ZM119.574 58.2335H109.332V18.3506H119.574V58.2335Z" fill="#031862"/>
<path d="M165.981 58.2335H163.523L159.575 52.7594C158.606 53.6283 157.576 54.4475 156.483 55.2171C155.416 55.9619 154.286 56.6198 153.094 57.1908C151.902 57.737 150.673 58.1714 149.407 58.4942C148.165 58.8169 146.899 58.9783 145.608 58.9783C142.802 58.9783 140.158 58.5066 137.675 57.5632C135.217 56.6198 133.057 55.2544 131.194 53.4669C129.357 51.6546 127.904 49.4451 126.837 46.8384C125.769 44.2317 125.235 41.265 125.235 37.9383C125.235 34.835 125.769 31.9925 126.837 29.4106C127.904 26.8038 129.357 24.5695 131.194 22.7075C133.057 20.8456 135.217 19.4057 137.675 18.3878C140.158 17.3451 142.802 16.8238 145.608 16.8238C146.899 16.8238 148.178 16.9852 149.444 17.3079C150.711 17.6306 151.94 18.0775 153.131 18.6485C154.323 19.2195 155.453 19.8898 156.521 20.6594C157.613 21.429 158.631 22.2607 159.575 23.1544L163.523 18.4251H165.981V58.2335ZM155.739 37.9383C155.739 36.548 155.465 35.2074 154.919 33.9165C154.398 32.6007 153.678 31.4463 152.759 30.4532C151.84 29.4354 150.76 28.6285 149.519 28.0327C148.302 27.4121 146.998 27.1017 145.608 27.1017C144.218 27.1017 142.902 27.3376 141.66 27.8093C140.443 28.281 139.376 28.9761 138.457 29.8947C137.563 30.8132 136.855 31.9552 136.334 33.3206C135.813 34.6612 135.552 36.2005 135.552 37.9383C135.552 39.6761 135.813 41.2277 136.334 42.5931C136.855 43.9337 137.563 45.0633 138.457 45.9819C139.376 46.9004 140.443 47.5956 141.66 48.0673C142.902 48.539 144.218 48.7748 145.608 48.7748C146.998 48.7748 148.302 48.4769 149.519 47.8811C150.76 47.2604 151.84 46.4536 152.759 45.4605C153.678 44.4427 154.398 43.2883 154.919 41.9973C155.465 40.6815 155.739 39.3285 155.739 37.9383Z" fill="#031862"/>
<path d="M186.279 54.4351C186.279 55.3289 186.118 56.1729 185.795 56.9674C185.472 57.737 185.025 58.4073 184.454 58.9783C183.883 59.5493 183.213 59.9961 182.443 60.3189C181.673 60.6664 180.842 60.8402 179.948 60.8402C179.079 60.8402 178.247 60.6664 177.452 60.3189C176.683 59.9961 176 59.5493 175.404 58.9783C174.833 58.4073 174.373 57.737 174.026 56.9674C173.703 56.1729 173.542 55.3289 173.542 54.4351C173.542 53.5662 173.703 52.747 174.026 51.9774C174.373 51.2077 174.833 50.5374 175.404 49.9665C176 49.3955 176.683 48.9486 177.452 48.6258C178.247 48.2783 179.079 48.1045 179.948 48.1045C180.842 48.1045 181.673 48.2783 182.443 48.6258C183.213 48.9486 183.883 49.3955 184.454 49.9665C185.025 50.5374 185.472 51.2077 185.795 51.9774C186.118 52.747 186.279 53.5662 186.279 54.4351Z" fill="#031862"/>
<path d="M222.258 37.9383C222.258 36.548 221.985 35.2074 221.438 33.9165C220.917 32.6007 220.197 31.4463 219.278 30.4532C218.359 29.4354 217.279 28.6285 216.038 28.0327C214.821 27.4121 213.518 27.1017 212.127 27.1017C210.737 27.1017 209.421 27.3376 208.179 27.8093C206.963 28.281 205.895 28.9761 204.976 29.8947C204.082 30.8132 203.375 31.9552 202.853 33.3206C202.332 34.6612 202.071 36.2005 202.071 37.9383C202.071 39.6016 202.332 41.1036 202.853 42.4442C203.375 43.76 204.082 44.8895 204.976 45.8329C205.895 46.7763 206.963 47.5087 208.179 48.03C209.421 48.5265 210.737 48.7748 212.127 48.7748C213.518 48.7748 214.821 48.4769 216.038 47.8811C217.279 47.2604 218.359 46.4536 219.278 45.4605C220.197 44.4427 220.917 43.2883 221.438 41.9973C221.985 40.6815 222.258 39.3285 222.258 37.9383ZM232.5 53.2062C232.5 56.0116 231.966 58.6431 230.899 61.1009C229.831 63.5587 228.366 65.7061 226.504 67.5432C224.666 69.3804 222.506 70.8327 220.023 71.9002C217.565 72.9677 214.933 73.5015 212.127 73.5015L207.025 73.427V63.2608L212.053 63.3352C213.642 63.3352 214.995 63.1242 216.112 62.7022C217.23 62.305 218.173 61.7464 218.943 61.0264C219.713 60.3313 220.321 59.5244 220.768 58.6059C221.24 57.6873 221.612 56.7191 221.885 55.7012C221.488 56.3467 220.917 56.8805 220.172 57.3025C219.427 57.6997 218.595 58.0225 217.677 58.2707C216.783 58.5438 215.839 58.73 214.846 58.8293C213.878 58.9286 212.971 58.9783 212.127 58.9783C209.321 58.9783 206.677 58.4942 204.194 57.526C201.736 56.5577 199.576 55.1799 197.713 53.3924C195.876 51.5801 194.423 49.3706 193.356 46.7639C192.288 44.1572 191.754 41.2153 191.754 37.9383C191.754 34.9343 192.288 32.1414 193.356 29.5595C194.423 26.9776 195.876 24.7433 197.713 22.8565C199.576 20.9697 201.736 19.4926 204.194 18.4251C206.677 17.3576 209.321 16.8238 212.127 16.8238C213.418 16.8238 214.697 16.9852 215.963 17.3079C217.23 17.6306 218.459 18.0775 219.651 18.6485C220.842 19.2195 221.972 19.8898 223.04 20.6594C224.132 21.429 225.15 22.2607 226.094 23.1544L230.042 18.4251H232.5V53.2062Z" fill="#031862"/>
<path d="M278.833 37.9383C278.833 40.9174 278.299 43.6979 277.231 46.2798C276.163 48.8369 274.711 51.0588 272.873 52.9456C271.036 54.8075 268.876 56.2847 266.393 57.377C263.935 58.4445 261.29 58.9783 258.46 58.9783C255.654 58.9783 253.01 58.4445 250.527 57.377C248.068 56.2847 245.908 54.8075 244.046 52.9456C242.209 51.0588 240.756 48.8369 239.688 46.2798C238.621 43.6979 238.087 40.9174 238.087 37.9383C238.087 34.9095 238.621 32.1042 239.688 29.5223C240.756 26.9404 242.209 24.7184 244.046 22.8565C245.908 20.9697 248.068 19.4926 250.527 18.4251C253.01 17.3576 255.654 16.8238 258.46 16.8238C261.29 16.8238 263.935 17.3327 266.393 18.3506C268.876 19.3436 271.036 20.7711 272.873 22.6331C274.711 24.4702 276.163 26.6921 277.231 29.2988C278.299 31.8807 278.833 34.7606 278.833 37.9383ZM268.59 37.9383C268.59 36.2998 268.317 34.8226 267.771 33.5068C267.249 32.1662 266.529 31.0242 265.611 30.0809C264.692 29.1126 263.612 28.3803 262.37 27.8838C261.154 27.3624 259.85 27.1017 258.46 27.1017C257.069 27.1017 255.753 27.3624 254.512 27.8838C253.295 28.3803 252.227 29.1126 251.309 30.0809C250.415 31.0242 249.707 32.1662 249.186 33.5068C248.664 34.8226 248.404 36.2998 248.404 37.9383C248.404 39.4775 248.664 40.905 249.186 42.2208C249.707 43.5365 250.415 44.6785 251.309 45.6467C252.227 46.6149 253.295 47.3846 254.512 47.9555C255.753 48.5017 257.069 48.7748 258.46 48.7748C259.85 48.7748 261.154 48.5141 262.37 47.9928C263.612 47.4714 264.692 46.7391 265.611 45.7957C266.529 44.8523 267.249 43.7103 267.771 42.3697C268.317 41.0291 268.59 39.552 268.59 37.9383Z" fill="#031862"/>
<path d="M294.587 58.2335L279.391 18.3506H290.974L299.69 43.2262L308.368 18.3506H319.988L304.792 58.2335H294.587Z" fill="#031862"/>
<path d="M333.396 54.4351C333.396 55.3289 333.235 56.1729 332.912 56.9674C332.589 57.737 332.142 58.4073 331.571 58.9783C331 59.5493 330.33 59.9961 329.56 60.3189C328.79 60.6664 327.958 60.8402 327.065 60.8402C326.196 60.8402 325.364 60.6664 324.569 60.3189C323.799 59.9961 323.117 59.5493 322.521 58.9783C321.95 58.4073 321.49 57.737 321.143 56.9674C320.82 56.1729 320.658 55.3289 320.658 54.4351C320.658 53.5662 320.82 52.747 321.143 51.9774C321.49 51.2077 321.95 50.5374 322.521 49.9665C323.117 49.3955 323.799 48.9486 324.569 48.6258C325.364 48.2783 326.196 48.1045 327.065 48.1045C327.958 48.1045 328.79 48.2783 329.56 48.6258C330.33 48.9486 331 49.3955 331.571 49.9665C332.142 50.5374 332.589 51.2077 332.912 51.9774C333.235 52.747 333.396 53.5662 333.396 54.4351Z" fill="#031862"/>
<path d="M352.987 7.51406C352.987 8.45745 352.801 9.33877 352.428 10.158C352.081 10.9773 351.596 11.6972 350.976 12.3179C350.355 12.9137 349.622 13.3978 348.778 13.7702C347.959 14.1178 347.077 14.2915 346.134 14.2915C345.19 14.2915 344.296 14.1178 343.452 13.7702C342.633 13.3978 341.913 12.9137 341.292 12.3179C340.696 11.6972 340.212 10.9773 339.84 10.158C339.492 9.33877 339.318 8.45745 339.318 7.51406C339.318 6.5955 339.492 5.72659 339.84 4.90733C340.212 4.06325 340.696 3.3433 341.292 2.74748C341.913 2.12683 342.633 1.64272 343.452 1.29516C344.296 0.922767 345.19 0.736572 346.134 0.736572C347.077 0.736572 347.959 0.922767 348.778 1.29516C349.622 1.64272 350.355 2.12683 350.976 2.74748C351.596 3.3433 352.081 4.06325 352.428 4.90733C352.801 5.72659 352.987 6.5955 352.987 7.51406ZM351.236 58.2335H340.994V18.3506H351.236V58.2335Z" fill="#031862"/>
<path d="M369.188 58.2335H359.021V18.3506H361.479L364.831 22.2234C366.47 20.7339 368.319 19.5919 370.38 18.7975C372.466 17.9782 374.639 17.5686 376.898 17.5686C379.331 17.5686 381.628 18.0403 383.788 18.9837C385.949 19.9022 387.836 21.1808 389.45 22.8193C391.064 24.433 392.33 26.3321 393.249 28.5168C394.192 30.6767 394.664 32.9855 394.664 35.4433V58.2335H384.496V35.4433C384.496 34.4006 384.297 33.4199 383.9 32.5014C383.503 31.558 382.957 30.7387 382.261 30.0436C381.566 29.3485 380.759 28.8023 379.84 28.4051C378.922 28.0079 377.941 27.8093 376.898 27.8093C375.83 27.8093 374.825 28.0079 373.881 28.4051C372.938 28.8023 372.118 29.3485 371.423 30.0436C370.728 30.7387 370.182 31.558 369.784 32.5014C369.387 33.4199 369.188 34.4006 369.188 35.4433V58.2335Z" fill="#031862"/>
<path d="M238.346 64.4172L395.024 64.4173V73.1774H238.346V64.4172Z" fill="#008D39"/>
<path d="M2.31527 64.4172L191.978 64.4173V73.1774H2.31527V64.4172Z" fill="#FF9200"/>
<path d="M72.9974 81.6799H75.8063V98.4274H73.9251L64.3131 86.7299V98.4274H61.5043V81.6799H63.3854L72.9974 93.3774V81.6799Z" fill="#031862"/>
<path d="M91.7013 96.2116L92.1136 98.1182L92.0106 98.2986C91.6498 98.5562 91.1086 98.7366 90.4644 98.7366C89.3048 98.7366 88.4544 98.1182 88.1194 97.0618C87.0113 98.1182 85.4136 98.7366 83.7128 98.7366C81.0586 98.7366 78.6105 97.2679 78.6105 94.4853C78.6105 91.6253 81.1874 90.3113 84.3571 90.3113C85.7486 90.3113 86.8309 90.569 87.7586 90.9039V90.1825C87.7586 88.3274 86.0836 87.4256 84.3055 87.4256C82.8367 87.4256 81.7028 88.044 80.8009 88.92H80.5947L79.1774 87.5802V87.3741C80.569 86.0343 82.347 85.2355 84.5632 85.2355C87.3463 85.2355 90.5159 86.4723 90.5159 90.1825V95.1552C90.5159 95.8509 90.6448 96.2889 91.1086 96.2889C91.289 96.2889 91.4179 96.2116 91.5209 96.1343L91.7013 96.2116ZM87.7586 93.7639V92.8105C87.0886 92.5529 85.9805 92.2179 84.7178 92.2179C82.6821 92.2179 81.4194 93.094 81.4194 94.4853C81.4194 95.9539 82.8109 96.6753 84.2797 96.6753C86.0578 96.6753 87.7586 95.5674 87.7586 93.7639Z" fill="#031862"/>
<path d="M101.015 96.057L101.839 97.8348L101.762 98.0409C101.066 98.5304 100.216 98.7366 99.3653 98.7366C96.8914 98.7366 95.0103 97.0361 95.0103 94.1246V87.7348H92.8199V85.5447H95.0103V81.7572L97.613 81.3707L97.8191 81.4996V85.5447H101.736V87.7348H97.8191V93.9184C97.8191 95.4386 98.5149 96.3146 99.7518 96.3146C100.164 96.3146 100.473 96.1858 100.834 95.9539L101.015 96.057Z" fill="#031862"/>
<path d="M105.467 84.0761C106.549 84.0761 107.425 83.2001 107.425 82.1179C107.425 81.0616 106.549 80.1855 105.467 80.1855C104.41 80.1855 103.534 81.0616 103.534 82.1179C103.534 83.2001 104.41 84.0761 105.467 84.0761ZM104.075 98.4274V85.5447H106.884V98.4274H104.075Z" fill="#031862"/>
<path d="M116.601 85.2355C120.698 85.2355 123.636 88.147 123.636 91.986C123.636 95.8508 120.698 98.7366 116.601 98.7366C112.503 98.7366 109.592 95.8251 109.592 91.986C109.592 88.147 112.503 85.2355 116.601 85.2355ZM116.601 96.2889C119.049 96.2889 120.75 94.4595 120.75 91.986C120.75 89.5126 119.049 87.6832 116.601 87.6832C114.178 87.6832 112.452 89.5126 112.452 91.986C112.452 94.4595 114.178 96.2889 116.601 96.2889Z" fill="#031862"/>
<path d="M133.331 85.2355C136.603 85.2355 138.691 87.4514 138.691 90.672V98.4274H135.882V90.9039C135.882 88.9457 134.722 87.6575 132.789 87.6575C130.857 87.6575 129.542 88.9457 129.542 90.9039V98.4274H126.708V88.8169C126.708 88.1213 126.605 87.6832 126.115 87.6832C125.935 87.6832 125.806 87.7605 125.703 87.8378L125.522 87.7605L125.11 85.8539L125.213 85.6735C125.574 85.4159 126.141 85.2355 126.811 85.2355C127.996 85.2355 128.795 85.8281 129.13 86.8588C130.135 85.8539 131.604 85.2355 133.331 85.2355Z" fill="#031862"/>
<path d="M154.162 96.2116L154.574 98.1182L154.471 98.2986C154.11 98.5562 153.569 98.7366 152.925 98.7366C151.765 98.7366 150.915 98.1182 150.58 97.0618C149.472 98.1182 147.874 98.7366 146.173 98.7366C143.519 98.7366 141.071 97.2679 141.071 94.4853C141.071 91.6253 143.648 90.3113 146.818 90.3113C148.209 90.3113 149.291 90.569 150.219 90.9039V90.1825C150.219 88.3274 148.544 87.4256 146.766 87.4256C145.297 87.4256 144.163 88.044 143.261 88.92H143.055L141.638 87.5802V87.3741C143.029 86.0343 144.808 85.2355 147.024 85.2355C149.807 85.2355 152.976 86.4723 152.976 90.1825V95.1552C152.976 95.8509 153.105 96.2889 153.569 96.2889C153.75 96.2889 153.878 96.2116 153.981 96.1343L154.162 96.2116ZM150.219 93.7639V92.8105C149.549 92.5529 148.441 92.2179 147.178 92.2179C145.143 92.2179 143.88 93.094 143.88 94.4853C143.88 95.9539 145.271 96.6753 146.74 96.6753C148.518 96.6753 150.219 95.5674 150.219 93.7639Z" fill="#031862"/>
<path d="M156.795 81.2419L159.398 80.8554L159.604 80.9843V95.1552C159.604 95.8509 159.707 96.2889 160.171 96.2889C160.377 96.2889 160.506 96.2116 160.609 96.1343L160.79 96.2116L161.202 98.1182L161.099 98.2986C160.738 98.5562 160.171 98.7366 159.475 98.7366C157.697 98.7366 156.795 97.5514 156.795 95.7736V81.2419Z" fill="#031862"/>
<path d="M176.64 81.6799C180.66 81.6799 182.799 83.6896 182.799 86.9361C182.799 90.2082 180.686 92.1922 176.64 92.1922H172.878V98.4274H170.017V81.6799H176.64ZM176.924 89.8991C178.753 89.8991 179.887 88.6881 179.887 87.0133C179.887 85.3128 178.753 84.1019 176.924 84.1019H172.878V89.8991H176.924Z" fill="#031862"/>
<path d="M191.04 85.2355C195.137 85.2355 198.075 88.147 198.075 91.986C198.075 95.8508 195.137 98.7366 191.04 98.7366C186.943 98.7366 184.031 95.8251 184.031 91.986C184.031 88.147 186.943 85.2355 191.04 85.2355ZM191.04 96.2889C193.488 96.2889 195.189 94.4595 195.189 91.986C195.189 89.5126 193.488 87.6832 191.04 87.6832C188.618 87.6832 186.891 89.5126 186.891 91.986C186.891 94.4595 188.618 96.2889 191.04 96.2889Z" fill="#031862"/>
<path d="M209.058 85.6735L209.161 85.8797L208.44 87.9409L208.259 88.0182C207.77 87.7348 207.306 87.6575 206.739 87.6575C205.09 87.6575 203.956 88.9457 203.956 91.0585V98.4274H201.147V88.8169C201.147 88.1213 201.044 87.6832 200.554 87.6832C200.374 87.6832 200.245 87.7605 200.142 87.8378L199.962 87.7605L199.549 85.8539L199.652 85.6735C200.013 85.4159 200.529 85.2355 201.25 85.2355C202.358 85.2355 203.183 85.8281 203.492 86.8845C204.342 85.8539 205.554 85.2355 207.022 85.2355C207.77 85.2355 208.44 85.3901 209.058 85.6735Z" fill="#031862"/>
<path d="M217.757 96.057L218.581 97.8348L218.504 98.0409C217.808 98.5304 216.958 98.7366 216.108 98.7366C213.634 98.7366 211.753 97.0361 211.753 94.1246V87.7348H209.562V85.5447H211.753V81.7572L214.355 81.3707L214.561 81.4996V85.5447H218.478V87.7348H214.561V93.9184C214.561 95.4386 215.257 96.3146 216.494 96.3146C216.906 96.3146 217.216 96.1858 217.576 95.9539L217.757 96.057Z" fill="#031862"/>
<path d="M232.955 96.2116L233.367 98.1182L233.264 98.2986C232.903 98.5562 232.362 98.7366 231.718 98.7366C230.558 98.7366 229.708 98.1182 229.373 97.0618C228.265 98.1182 226.667 98.7366 224.966 98.7366C222.312 98.7366 219.864 97.2679 219.864 94.4853C219.864 91.6253 222.441 90.3113 225.61 90.3113C227.002 90.3113 228.084 90.569 229.012 90.9039V90.1825C229.012 88.3274 227.337 87.4256 225.559 87.4256C224.09 87.4256 222.956 88.044 222.054 88.92H221.848L220.431 87.5802V87.3741C221.822 86.0343 223.6 85.2355 225.817 85.2355C228.6 85.2355 231.769 86.4723 231.769 90.1825V95.1552C231.769 95.8509 231.898 96.2889 232.362 96.2889C232.542 96.2889 232.671 96.2116 232.774 96.1343L232.955 96.2116ZM229.012 93.7639V92.8105C228.342 92.5529 227.234 92.2179 225.971 92.2179C223.935 92.2179 222.673 93.094 222.673 94.4853C222.673 95.9539 224.064 96.6753 225.533 96.6753C227.311 96.6753 229.012 95.5674 229.012 93.7639Z" fill="#031862"/>
<path d="M235.588 81.2419L238.191 80.8554L238.397 80.9843V95.1552C238.397 95.8509 238.5 96.2889 238.964 96.2889C239.17 96.2889 239.299 96.2116 239.402 96.1343L239.582 96.2116L239.995 98.1182L239.892 98.2986C239.531 98.5562 238.964 98.7366 238.268 98.7366C236.49 98.7366 235.588 97.5514 235.588 95.7736V81.2419Z" fill="#031862"/>
<path d="M254.583 85.2355C258.68 85.2355 261.618 88.147 261.618 91.986C261.618 95.8508 258.68 98.7366 254.583 98.7366C250.485 98.7366 247.573 95.8251 247.573 91.986C247.573 88.147 250.485 85.2355 254.583 85.2355ZM254.583 96.2889C257.031 96.2889 258.731 94.4595 258.731 91.986C258.731 89.5126 257.031 87.6832 254.583 87.6832C252.16 87.6832 250.434 89.5126 250.434 91.986C250.434 94.4595 252.16 96.2889 254.583 96.2889Z" fill="#031862"/>
<path d="M270.155 82.7878C268.944 82.7878 267.887 83.535 267.887 85.3128V85.5447H271.727V87.7348H267.887V98.4274H265.079V87.7348H262.888V85.5447H265.079V85.3386C265.079 81.9376 267.501 80.5205 269.897 80.5205C270.774 80.5205 271.753 80.7008 272.449 81.1131L272.552 81.3192L271.83 83.097L271.65 83.2001C271.16 82.8909 270.645 82.7878 270.155 82.7878Z" fill="#031862"/>
<path d="M279.588 81.6799H282.448V98.4274H279.588V81.6799Z" fill="#031862"/>
<path d="M293.332 85.2355C296.605 85.2355 298.692 87.4514 298.692 90.672V98.4274H295.883V90.9039C295.883 88.9457 294.724 87.6575 292.791 87.6575C290.858 87.6575 289.544 88.9457 289.544 90.9039V98.4274H286.709V88.8169C286.709 88.1213 286.606 87.6832 286.117 87.6832C285.936 87.6832 285.807 87.7605 285.704 87.8378L285.524 87.7605L285.112 85.8539L285.215 85.6735C285.575 85.4159 286.142 85.2355 286.812 85.2355C287.998 85.2355 288.797 85.8281 289.132 86.8588C290.137 85.8539 291.606 85.2355 293.332 85.2355Z" fill="#031862"/>
<path d="M315.864 96.2116L316.276 98.1182L316.173 98.2986C315.813 98.5562 315.271 98.7366 314.627 98.7366C313.39 98.7366 312.54 98.0409 312.231 96.8815C311.123 98.0151 309.576 98.7366 307.669 98.7366C303.83 98.7366 301.176 95.7478 301.176 91.986C301.176 88.1985 303.856 85.2355 307.644 85.2355C309.345 85.2355 310.788 85.8539 311.896 86.8072V81.2419L314.498 80.8554L314.679 80.9843V95.1552C314.679 95.8509 314.808 96.2889 315.271 96.2889C315.452 96.2889 315.581 96.2116 315.684 96.1343L315.864 96.2116ZM308.108 96.2889C310.324 96.2889 312.128 94.7945 312.128 91.986C312.128 89.1519 310.298 87.6832 308.108 87.6832C305.608 87.6832 304.036 89.6156 304.036 91.986C304.036 94.3565 305.608 96.2889 308.108 96.2889Z" fill="#031862"/>
<path d="M320.002 84.0761C321.084 84.0761 321.96 83.2001 321.96 82.1179C321.96 81.0616 321.084 80.1855 320.002 80.1855C318.945 80.1855 318.069 81.0616 318.069 82.1179C318.069 83.2001 318.945 84.0761 320.002 84.0761ZM318.61 98.4274V85.5447H321.419V98.4274H318.61Z" fill="#031862"/>
<path d="M337.114 96.2116L337.527 98.1182L337.423 98.2986C337.063 98.5562 336.522 98.7366 335.877 98.7366C334.718 98.7366 333.867 98.1182 333.532 97.0618C332.424 98.1182 330.826 98.7366 329.126 98.7366C326.471 98.7366 324.023 97.2679 324.023 94.4853C324.023 91.6253 326.6 90.3113 329.77 90.3113C331.161 90.3113 332.244 90.569 333.172 90.9039V90.1825C333.172 88.3274 331.496 87.4256 329.718 87.4256C328.25 87.4256 327.116 88.044 326.214 88.92H326.008L324.59 87.5802V87.3741C325.982 86.0343 327.76 85.2355 329.976 85.2355C332.759 85.2355 335.929 86.4723 335.929 90.1825V95.1552C335.929 95.8509 336.058 96.2889 336.522 96.2889C336.702 96.2889 336.831 96.2116 336.934 96.1343L337.114 96.2116ZM333.172 93.7639V92.8105C332.502 92.5529 331.393 92.2179 330.131 92.2179C328.095 92.2179 326.832 93.094 326.832 94.4853C326.832 95.9539 328.224 96.6753 329.693 96.6753C331.471 96.6753 333.172 95.5674 333.172 93.7639Z" fill="#031862"/>
</svg>
